# xmcd
#
# Track frame offsets:
#	150
#	18083
#	36312
#	53737
#	70733
#	85118
#	96370
#	113835
#	127683
#	146645
#	166889
#	183601
#	205750
#	221869
#
# Disc length: 3160 seconds
#
# Revision: 0
# Processed by: cddbd v1.5.2PL0 Copyright (c) Steve Scherf et al.
# Submitted via: Jack! The Knife
#
DISCID=c00c560e
DTITLE=Tiziano Ferro - L'amore è una cosa semplice
DYEAR=2011
DGENRE=Pop
TTITLE0=Hai delle isole negli occhi
TTITLE1=L'amore è una cosa semplice
TTITLE2=La differenza tra me e te
TTITLE3=La fine
TTITLE4=Smeraldo
TTITLE5=Interludio: 10.000 scuse
TTITLE6=L'ultima notte al mondo
TTITLE7=Paura non ho
TTITLE8=TV M
TTITLE9=Troppo buono
TTITLE10=Quiero vivir con vos
TTITLE11=Ma so proteggerti
TTITLE12=Per dirti ciao!
TTITLE13=Karma (feat. John Legend)
EXTD=Michele Canova
EXTT0=Tiziano Ferro
EXTT1=Tiziano Ferro
EXTT2=Tiziano Ferro
EXTT3=Nesli \ Zangirolami
EXTT4=Tiziano Ferro
EXTT5=Tiziano Ferro
EXTT6=Tiziano Ferro
EXTT7=Irene Grandi
EXTT8=Tiziano Ferro
EXTT9=Tiziano Ferro
EXTT10=Tiziano Ferro
EXTT11=Tiziano Ferro
EXTT12=Tiziano Ferro
EXTT13=Mann \ Ferro
PLAYORDER=
